<svg xmlns="http://www.w3.org/2000/svg" width="512" height="512" viewBox="0 0 512 512"><defs><linearGradient id="g" x1="0" y1="0" x2="0" y2="1"><stop offset="0%" stop-color="#64D3FF"/><stop offset="100%" stop-color="#2B84FF"/></linearGradient></defs><circle cx="256" cy="256" r="170" fill="url(#g)"/><path d="M305 150C283 142 257 138 233 138C160 138 107 191 107 264C107 338 165 390 239 390C282 390 319 375 350 347L308 308C288 326 267 333 241 333C195 333 163 304 163 260C163 214 198 185 240 185C263 185 282 192 300 206L343 168C331 159 319 154 305 150Z" fill="#FFF"/></svg>